<svg width="65" height="23" viewBox="0 0 65 23" fill="none" xmlns="http://www.w3.org/2000/svg">
<g filter="url(#filter0_d_2156_2009)">
<rect x="4.06421" width="56.7732" height="15" rx="7.5" fill="#CD62B0"/>
<path d="M27.5436 11.2856C26.6224 11.2856 25.9534 11.0854 25.5368 10.6851C25.1234 10.2847 24.9167 9.73128 24.9167 9.0249H26.2253C26.2253 9.47738 26.3294 9.78499 26.5378 9.94775C26.7493 10.1073 27.0895 10.187 27.5583 10.187C27.9945 10.187 28.3102 10.0877 28.5055 9.88916C28.7041 9.68734 28.8034 9.39437 28.8034 9.01025C28.8034 8.71403 28.7594 8.48128 28.6715 8.31201C28.5837 8.14274 28.4241 8.0223 28.193 7.95068C27.9652 7.87907 27.6413 7.84326 27.2213 7.84326V6.87158C27.6901 6.87158 28.0335 6.83577 28.2516 6.76416C28.4697 6.68929 28.6097 6.57699 28.6715 6.42725C28.7334 6.27425 28.7643 6.08057 28.7643 5.84619C28.7643 5.54671 28.6764 5.31559 28.5006 5.15283C28.3249 4.99007 28.001 4.90869 27.529 4.90869C27.0407 4.90869 26.7054 4.99658 26.5231 5.17236C26.3408 5.34489 26.2497 5.65739 26.2497 6.10986H24.946C24.946 5.53369 25.0518 5.07796 25.2633 4.74268C25.4749 4.40739 25.7728 4.16976 26.1569 4.02979C26.541 3.88656 26.9935 3.81494 27.5143 3.81494C28.0286 3.81494 28.4811 3.89144 28.8717 4.04443C29.2624 4.19743 29.5667 4.42041 29.7848 4.71338C30.0062 5.00635 30.1169 5.36117 30.1169 5.77783C30.1169 6.0057 30.0892 6.22705 30.0338 6.44189C29.9818 6.65674 29.8776 6.84554 29.7213 7.0083C29.5651 7.16781 29.3324 7.28011 29.0231 7.34521C29.4593 7.4624 29.7604 7.67887 29.9264 7.99463C30.0957 8.30713 30.1803 8.66683 30.1803 9.07373C30.1803 9.49365 30.0908 9.87126 29.9118 10.2065C29.736 10.5386 29.4544 10.8022 29.0671 10.9976C28.6829 11.1896 28.1751 11.2856 27.5436 11.2856ZM31.7428 5.90967H33.071V6.53467C33.1491 6.39795 33.2858 6.27751 33.4811 6.17334C33.6797 6.06592 33.9059 5.98291 34.1598 5.92432C34.4137 5.86247 34.6676 5.83154 34.9215 5.83154L34.8922 6.95947C34.723 6.96924 34.5391 6.9904 34.3405 7.02295C34.1419 7.0555 33.9499 7.09945 33.7643 7.15479C33.582 7.21012 33.4274 7.27848 33.3004 7.35986C33.1735 7.44124 33.097 7.53402 33.071 7.63818V11.1538H31.7428V5.90967ZM35.6296 9.57178V7.47705C35.6296 6.99202 35.8004 6.59163 36.1422 6.27588C36.4873 5.95687 37.0423 5.79736 37.8073 5.79736C37.957 5.79736 38.1182 5.81527 38.2907 5.85107C38.4665 5.88363 38.6309 5.92757 38.7838 5.98291V3.75635H40.112V11.1538H39.2135L39.0719 10.8462C38.9027 10.9666 38.7008 11.0675 38.4665 11.1489C38.2353 11.2271 37.9847 11.2661 37.7145 11.2661C37.0049 11.2661 36.4792 11.1164 36.1374 10.8169C35.7988 10.5142 35.6296 10.0991 35.6296 9.57178ZM38.7838 10.1235V6.90576C38.696 6.86344 38.5755 6.82275 38.4225 6.78369C38.2728 6.74463 38.1051 6.7251 37.9196 6.7251C37.6169 6.7251 37.3809 6.77881 37.2116 6.88623C37.0423 6.99365 36.9577 7.18083 36.9577 7.44775V9.59131C36.9577 9.85824 37.0358 10.0487 37.1921 10.1626C37.3516 10.2765 37.5778 10.3335 37.8708 10.3335C38.0531 10.3335 38.2256 10.314 38.3883 10.2749C38.5511 10.2358 38.6829 10.1854 38.7838 10.1235Z" fill="white"/>
</g>
<defs>
<filter id="filter0_d_2156_2009" x="0.064209" y="0" width="64.7732" height="23" filterUnits="userSpaceOnUse" color-interpolation-filters="sRGB">
<feFlood flood-opacity="0" result="BackgroundImageFix"/>
<feColorMatrix in="SourceAlpha" type="matrix" values="0 0 0 0 0 0 0 0 0 0 0 0 0 0 0 0 0 0 127 0" result="hardAlpha"/>
<feOffset dy="4"/>
<feGaussianBlur stdDeviation="2"/>
<feComposite in2="hardAlpha" operator="out"/>
<feColorMatrix type="matrix" values="0 0 0 0 0 0 0 0 0 0 0 0 0 0 0 0 0 0 0.25 0"/>
<feBlend mode="normal" in2="BackgroundImageFix" result="effect1_dropShadow_2156_2009"/>
<feBlend mode="normal" in="SourceGraphic" in2="effect1_dropShadow_2156_2009" result="shape"/>
</filter>
</defs>
</svg>
