<svg width="49" height="49" viewBox="0 0 49 49" fill="none" xmlns="http://www.w3.org/2000/svg">
<path d="M24.4234 11.8663C27.3955 11.8663 29.805 9.65765 29.805 6.93315C29.805 4.20865 27.3955 2 24.4234 2C21.4512 2 19.0417 4.20865 19.0417 6.93315C19.0417 9.65765 21.4512 11.8663 24.4234 11.8663Z" stroke="#104F55" stroke-width="3"/>
<path d="M41.4651 29.8048C44.4373 29.8048 46.8467 27.5961 46.8467 24.8716C46.8467 22.1471 44.4373 19.9385 41.4651 19.9385C38.4929 19.9385 36.0835 22.1471 36.0835 24.8716C36.0835 27.5961 38.4929 29.8048 41.4651 29.8048Z" stroke="#104F55" stroke-width="3"/>
<path d="M24.4234 46.8467C27.3955 46.8467 29.805 44.4373 29.805 41.4651C29.805 38.4929 27.3955 36.0835 24.4234 36.0835C21.4512 36.0835 19.0417 38.4929 19.0417 41.4651C19.0417 44.4373 21.4512 46.8467 24.4234 46.8467Z" stroke="#104F55" stroke-width="3"/>
<path d="M7.38162 39.6714C10.3538 39.6714 12.7632 37.262 12.7632 34.2898C12.7632 31.3176 10.3538 28.9082 7.38162 28.9082C4.40943 28.9082 2 31.3176 2 34.2898C2 37.262 4.40943 39.6714 7.38162 39.6714Z" stroke="#104F55" stroke-width="3"/>
<path d="M7.38162 19.0416C10.3538 19.0416 12.7632 16.8329 12.7632 14.1084C12.7632 11.3839 10.3538 9.17529 7.38162 9.17529C4.40943 9.17529 2 11.3839 2 14.1084C2 16.8329 4.40943 19.0416 7.38162 19.0416Z" stroke="#104F55" stroke-width="3"/>
<path d="M24.4234 27.1139C26.9002 27.1139 28.9081 25.3069 28.9081 23.0777C28.9081 20.8486 26.9002 19.0415 24.4234 19.0415C21.9466 19.0415 19.9387 20.8486 19.9387 23.0777C19.9387 25.3069 21.9466 27.1139 24.4234 27.1139Z" stroke="#104F55" stroke-width="3"/>
<path d="M11.8662 10.9691L19.9386 8.27832" stroke="#104F55" stroke-width="3"/>
<path d="M28.011 10.9692L37.8773 20.8355" stroke="#104F55" stroke-width="3"/>
<path d="M37.8773 28.9082L28.011 37.8776" stroke="#104F55" stroke-width="3"/>
<path d="M10.0723 18.1445L20.8355 37.8771" stroke="#104F55" stroke-width="3"/>
<path d="M11.8662 36.0835L19.0417 39.6712" stroke="#104F55" stroke-width="3"/>
<path d="M9.17554 28.908L21.7326 10.9692" stroke="#104F55" stroke-width="3"/>
<path d="M11.8662 16.3511L20.8356 20.8358" stroke="#104F55" stroke-width="3"/>
<path d="M28.908 23.5264H36.0834" stroke="#104F55" stroke-width="3"/>
<path d="M24.4233 27.1143V36.0836" stroke="#104F55" stroke-width="3"/>
</svg>
