<svg width="33" height="33" viewBox="0 0 33 33" fill="none" xmlns="http://www.w3.org/2000/svg">
<path d="M24.7106 28.0501H8.28978C7.44765 28.0864 6.61099 27.8979 5.86571 27.5041C5.12041 27.1103 4.49329 26.5255 4.04861 25.8095C3.60393 25.0934 3.35769 24.2718 3.33519 23.4293C3.3127 22.5866 3.51475 21.7533 3.92058 21.0145L12.131 6.74524C12.5861 5.99388 13.2274 5.37263 13.9928 4.94143C14.7581 4.51024 15.6217 4.28369 16.5001 4.28369C17.3786 4.28369 18.2423 4.51024 19.0076 4.94143C19.7729 5.37263 20.4143 5.99388 20.8694 6.74524L29.0798 21.0145C29.4856 21.7533 29.6877 22.5866 29.6651 23.4293C29.6427 24.2718 29.3965 25.0934 28.9518 25.8095C28.5071 26.5255 27.8798 27.1103 27.1346 27.5041C26.3893 27.8979 25.5527 28.0864 24.7106 28.0501Z" stroke="white" stroke-width="3" stroke-linecap="round" stroke-linejoin="round"/>
<path d="M15.0229 22.6381C15.0229 22.4429 15.0616 22.2495 15.1367 22.0693C15.2118 21.889 15.3219 21.7255 15.4607 21.5881C15.5993 21.4506 15.7639 21.342 15.9447 21.2685C16.1257 21.195 16.3192 21.158 16.5145 21.1597C16.8026 21.165 17.0827 21.2549 17.3199 21.4184C17.557 21.582 17.7407 21.8119 17.848 22.0792C17.9552 22.3467 17.9812 22.6397 17.9229 22.9218C17.8644 23.2039 17.7241 23.4625 17.5195 23.6653C17.3149 23.8681 17.055 24.006 16.7723 24.062C16.4897 24.118 16.197 24.0893 15.9306 23.9796C15.6641 23.8701 15.436 23.6843 15.2745 23.4457C15.1131 23.2072 15.0256 22.9263 15.0229 22.6381ZM15.4981 19.0345L15.3133 12.1441C15.2958 11.9785 15.3132 11.811 15.3647 11.6526C15.416 11.4942 15.5001 11.3483 15.6115 11.2245C15.7229 11.1006 15.8592 11.0016 16.0112 10.9339C16.1634 10.8661 16.3282 10.8311 16.4947 10.8311C16.6613 10.8311 16.8261 10.8661 16.9781 10.9339C17.1303 11.0016 17.2664 11.1006 17.3778 11.2245C17.4892 11.3483 17.5735 11.4942 17.6248 11.6526C17.6761 11.811 17.6937 11.9785 17.6761 12.1441L17.5045 19.0345C17.5045 19.3005 17.3988 19.5558 17.2107 19.7439C17.0225 19.932 16.7673 20.0377 16.5013 20.0377C16.2352 20.0377 15.9801 19.932 15.792 19.7439C15.6039 19.5558 15.4981 19.3005 15.4981 19.0345Z" fill="white"/>
</svg>
