<svg width="65" height="23" viewBox="0 0 65 23" fill="none" xmlns="http://www.w3.org/2000/svg">
<g filter="url(#filter0_d_2156_2030)">
<rect x="4.16699" width="56.7732" height="15" rx="7.5" fill="#6A4FA3"/>
<path d="M11.7626 3.79297H14.5898C15.3808 3.79297 15.97 3.97363 16.3574 4.33496C16.7447 4.69303 16.9384 5.27897 16.9384 6.09277C16.9384 6.64941 16.8619 7.10677 16.7089 7.46484C16.5559 7.81966 16.2971 8.08333 15.9326 8.25586C15.5712 8.42839 15.0764 8.51465 14.4482 8.51465H13.2128V11H11.7626V3.79297ZM14.6777 7.45508C15.0455 7.45508 15.288 7.34928 15.4052 7.1377C15.5224 6.92285 15.581 6.59896 15.581 6.16602C15.581 5.78841 15.524 5.47103 15.4101 5.21387C15.2962 4.95345 15.0683 4.82324 14.7265 4.82324H13.2128V7.45508H14.6777ZM18.1396 5.75586H19.4677V6.38086C19.5458 6.24414 19.6826 6.1237 19.8779 6.01953C20.0764 5.91211 20.3027 5.8291 20.5566 5.77051C20.8105 5.70866 21.0644 5.67773 21.3183 5.67773L21.289 6.80566C21.1197 6.81543 20.9358 6.83659 20.7372 6.86914C20.5387 6.90169 20.3466 6.94564 20.1611 7.00098C19.9788 7.05632 19.8242 7.12467 19.6972 7.20605C19.5703 7.28743 19.4938 7.38021 19.4677 7.48438V11H18.1396V5.75586ZM22.0263 5.75586H23.3496V11H22.0263V5.75586ZM22.0165 3.60254H23.3544V4.89648H22.0165V3.60254ZM24.1259 5.75586H25.4492L26.6943 9.70117L27.9247 5.75586H29.1796L27.4023 11H25.9912L24.1259 5.75586ZM29.956 5.75586H31.2792V11H29.956V5.75586ZM29.9462 3.60254H31.2841V4.89648H29.9462V3.60254ZM32.6904 9.27637V3.60254H34.0185V9.25684C34.0185 9.54329 34.0852 9.75163 34.2187 9.88184C34.3554 10.0088 34.6012 10.0723 34.956 10.0723H35.122L35.0195 11.0586H34.4628C33.8802 11.0586 33.4391 10.9268 33.1396 10.6631C32.8401 10.3962 32.6904 9.93392 32.6904 9.27637ZM35.9521 5.75586H37.2753V11H35.9521V5.75586ZM35.9423 3.60254H37.2802V4.89648H35.9423V3.60254ZM40.6884 13.1533C40.3629 13.1533 40.0374 13.1289 39.7119 13.0801C39.3896 13.0345 39.1373 12.9678 38.955 12.8799L39.2285 11.9766C39.4759 12.0449 39.7216 12.0954 39.9658 12.1279C40.2132 12.1637 40.4378 12.1816 40.6396 12.1816C41.0205 12.1816 41.2971 12.0986 41.4697 11.9326C41.6422 11.7699 41.7285 11.5078 41.7285 11.1465V10.5703C41.5722 10.6615 41.385 10.7298 41.1669 10.7754C40.9488 10.821 40.7389 10.8438 40.5371 10.8438C39.9055 10.8438 39.4059 10.7005 39.038 10.4141C38.6734 10.1276 38.4912 9.72721 38.4912 9.21289V7.33301C38.4912 7.03353 38.5546 6.75521 38.6816 6.49805C38.8085 6.24089 39.0185 6.03418 39.3115 5.87793C39.6044 5.72168 39.9967 5.64355 40.4882 5.64355C40.7779 5.64355 41.0546 5.69238 41.3183 5.79004C41.582 5.88444 41.7952 5.99837 41.958 6.13184L42.0703 5.75098H43.0566V11.0586C43.0566 11.7064 42.8727 12.2174 42.5048 12.5918C42.137 12.9661 41.5315 13.1533 40.6884 13.1533ZM40.7568 9.95996C40.9814 9.95996 41.1767 9.93717 41.3427 9.8916C41.5087 9.84603 41.6373 9.79069 41.7285 9.72559V6.9375C41.7285 6.86914 41.6406 6.79102 41.4648 6.70312C41.2923 6.61523 41.0563 6.57129 40.7568 6.57129C40.454 6.57129 40.2213 6.62826 40.0585 6.74219C39.899 6.85286 39.8193 7.04004 39.8193 7.30371V9.26172C39.8193 9.52539 39.9055 9.70768 40.0781 9.80859C40.2539 9.90951 40.4801 9.95996 40.7568 9.95996ZM44.4091 9.35938V7.31348C44.4091 6.77962 44.6109 6.36784 45.0146 6.07812C45.4215 5.78841 45.9651 5.64355 46.6455 5.64355C47.4527 5.64355 48.0257 5.79818 48.3642 6.10742C48.706 6.41667 48.8769 6.83496 48.8769 7.3623V8.63184H45.7373V9.48633C45.7373 9.79557 45.817 9.99089 45.9765 10.0723C46.136 10.1504 46.3736 10.1895 46.6894 10.1895C47.067 10.1895 47.3193 10.1374 47.4462 10.0332C47.5764 9.92578 47.6415 9.71094 47.6415 9.38867H48.872C48.872 10.0365 48.6897 10.4857 48.3251 10.7363C47.9606 10.987 47.4072 11.1123 46.665 11.1123C46.2386 11.1123 45.8544 11.0602 45.5126 10.9561C45.1708 10.8486 44.9007 10.668 44.7021 10.4141C44.5068 10.1602 44.4091 9.80859 44.4091 9.35938ZM47.622 7.82129V7.20605C47.622 7.01074 47.5797 6.86914 47.4951 6.78125C47.4137 6.6901 47.3014 6.63314 47.1581 6.61035C47.0182 6.58431 46.8587 6.57129 46.6796 6.57129C46.4127 6.57129 46.1881 6.61198 46.0058 6.69336C45.8268 6.77148 45.7373 6.95052 45.7373 7.23047V7.82129H47.622ZM49.9462 10.7021L50.2148 9.79883C50.4947 9.91927 50.7877 10.0153 51.0937 10.0869C51.4029 10.1553 51.6861 10.1895 51.9433 10.1895C52.1842 10.1895 52.3632 10.1325 52.4804 10.0186C52.5976 9.90137 52.6562 9.74186 52.6562 9.54004C52.6562 9.38704 52.622 9.26823 52.5537 9.18359C52.4886 9.0957 52.3746 9.02572 52.2119 8.97363L51.0595 8.6123C50.6461 8.4821 50.3613 8.29004 50.205 8.03613C50.052 7.78223 49.9755 7.47949 49.9755 7.12793C49.9755 6.62663 50.1513 6.25391 50.5029 6.00977C50.8577 5.76562 51.3102 5.64355 51.8603 5.64355C52.3095 5.64355 52.6904 5.69076 53.0029 5.78516C53.3154 5.87956 53.566 5.98047 53.7548 6.08789L53.4423 6.91309C53.3414 6.85775 53.208 6.80404 53.0419 6.75195C52.8759 6.69987 52.6985 6.65755 52.5097 6.625C52.3242 6.58919 52.1484 6.57129 51.9824 6.57129C51.7024 6.57129 51.5104 6.62012 51.4062 6.71777C51.302 6.81543 51.2499 6.95052 51.2499 7.12305C51.2499 7.23372 51.276 7.33138 51.3281 7.41602C51.3802 7.4974 51.4729 7.55924 51.6064 7.60156L52.6904 7.94336C53.1331 8.08333 53.4407 8.27865 53.6132 8.5293C53.7858 8.77995 53.872 9.11035 53.872 9.52051C53.872 9.96322 53.7158 10.3392 53.4033 10.6484C53.0908 10.9577 52.6204 11.1123 51.9921 11.1123C51.5494 11.1123 51.1653 11.0781 50.8398 11.0098C50.5175 10.9447 50.2197 10.8421 49.9462 10.7021Z" fill="white"/>
</g>
<defs>
<filter id="filter0_d_2156_2030" x="0.166992" y="0" width="64.7732" height="23" filterUnits="userSpaceOnUse" color-interpolation-filters="sRGB">
<feFlood flood-opacity="0" result="BackgroundImageFix"/>
<feColorMatrix in="SourceAlpha" type="matrix" values="0 0 0 0 0 0 0 0 0 0 0 0 0 0 0 0 0 0 127 0" result="hardAlpha"/>
<feOffset dy="4"/>
<feGaussianBlur stdDeviation="2"/>
<feComposite in2="hardAlpha" operator="out"/>
<feColorMatrix type="matrix" values="0 0 0 0 0 0 0 0 0 0 0 0 0 0 0 0 0 0 0.25 0"/>
<feBlend mode="normal" in2="BackgroundImageFix" result="effect1_dropShadow_2156_2030"/>
<feBlend mode="normal" in="SourceGraphic" in2="effect1_dropShadow_2156_2030" result="shape"/>
</filter>
</defs>
</svg>
